<?xml version="1.0" encoding="utf-8"?>
<!-- Generator: Adobe Illustrator 22.1.0, SVG Export Plug-In . SVG Version: 6.00 Build 0)  -->
<svg version="1.1" id="레이어_1" xmlns="http://www.w3.org/2000/svg" x="0px"
     y="0px" viewBox="0 0 347.4 82.3" style="enable-background:new 0 0 347.4 82.3;" xml:space="preserve">
<style type="text/css">
	.st0{fill:#373737;}
	.st1{fill:#FB836B;}
	.st2{fill:none;stroke:#373737;stroke-width:7.3;stroke-miterlimit:10;}
</style>
<g>
	<path class="st0" d="M171.5,52.2c0.1,1.4,0.6,2.5,1.4,3.4c0.8,0.8,1.9,1.3,3.3,1.3c0.8,0,1.5-0.1,2.3-0.4c0.7-0.3,1.2-0.7,1.6-1.3
		h8.5c-0.9,2.5-2.4,4.4-4.7,5.6s-4.8,1.9-7.6,1.9c-1.9,0-3.7-0.3-5.3-0.8c-1.6-0.6-3.1-1.4-4.3-2.4c-1.2-1.1-2.1-2.4-2.8-3.9
		s-1-3.3-1-5.3c0-1.7,0.3-3.3,0.9-4.9c0.6-1.5,1.5-2.9,2.6-4c1.1-1.2,2.5-2.1,4-2.7c1.6-0.6,3.3-1,5.1-1c4.6,0,8,1.2,10.3,3.7
		c2.2,2.5,3.3,6.1,3.3,10.9H171.5z M180.2,47.5c0-1.1-0.4-2.1-1.1-2.9c-0.8-0.8-1.7-1.2-2.9-1.2c-2.7,0-4.3,1.3-4.7,4H180.2z"/>
</g>
<g>
	<g>
		<path class="st1" d="M139,25.3c-0.3-5.1-6.5-4.6-8.9-1.5c-2.4-3.1-8.6-3.5-8.9,1.5c-0.2,4.8,5.2,8.4,8.8,10.3l0,0.1c0,0,0,0,0.1,0
			c0,0,0,0,0.1,0l0-0.1C133.8,33.6,139.3,30,139,25.3z"/>
	</g>
</g>
<g>
	<path class="st0" d="M204.5,37.9h7.3l8.8,24.2h-7.7l-1-3.5h-7.7l-1.1,3.5h-7.5L204.5,37.9z M210.3,53.5l-2.2-7.5h-0.1l-2.3,7.5
		H210.3z"/>
	<path class="st0" d="M222.2,37.9h12.3c1.9,0,3.6,0.3,5,1c1.4,0.7,2.5,1.6,3.4,2.7c0.9,1.1,1.5,2.4,1.9,3.9c0.4,1.4,0.6,2.9,0.6,4.5
		c0,3.8-1,6.8-3.1,8.9c-2.1,2.1-5.2,3.2-9.3,3.2h-10.8V37.9z M229.7,55.9h2.9c1.1,0,2-0.2,2.7-0.6c0.7-0.4,1.3-0.9,1.6-1.5
		c0.4-0.6,0.6-1.3,0.8-1.9c0.1-0.7,0.2-1.4,0.2-2c0-0.5-0.1-1.1-0.2-1.7c-0.1-0.6-0.4-1.2-0.8-1.9c-0.4-0.6-1-1.1-1.8-1.6
		c-0.8-0.4-1.8-0.6-3.1-0.6h-2.4V55.9z"/>
	<path class="st0" d="M248.8,44.9c0.6-1.6,1.4-2.9,2.5-4c1.1-1.1,2.4-2,3.9-2.6c1.5-0.6,3.2-0.9,5-0.9c1.8,0,3.5,0.3,5,0.9
		c1.5,0.6,2.8,1.5,3.9,2.6c1.1,1.1,1.9,2.5,2.5,4c0.6,1.6,0.9,3.3,0.9,5.1c0,1.8-0.3,3.5-0.9,5.1c-0.6,1.6-1.4,2.9-2.5,4
		c-1.1,1.1-2.4,2-3.9,2.6s-3.2,0.9-5,0.9c-1.8,0-3.5-0.3-5-0.9c-1.5-0.6-2.8-1.5-3.9-2.6c-1.1-1.1-1.9-2.5-2.5-4
		c-0.6-1.6-0.9-3.3-0.9-5.1C247.9,48.2,248.2,46.5,248.8,44.9z M255.9,53.3c0.3,0.9,0.7,1.6,1.2,2.1c0.5,0.5,1,0.8,1.5,1.1
		s1.1,0.3,1.6,0.3c0.5,0,1.1-0.1,1.6-0.3c0.5-0.2,1.1-0.6,1.5-1.1c0.5-0.5,0.9-1.2,1.2-2.1s0.5-2,0.5-3.2s-0.2-2.3-0.5-3.2
		s-0.7-1.6-1.2-2.1c-0.5-0.5-1-0.8-1.5-1.1c-0.5-0.2-1.1-0.3-1.6-0.3c-0.5,0-1.1,0.1-1.6,0.3c-0.5,0.2-1.1,0.6-1.5,1.1
		c-0.5,0.5-0.9,1.2-1.2,2.1c-0.3,0.9-0.5,2-0.5,3.2S255.6,52.4,255.9,53.3z"/>
	<path class="st0" d="M275.7,37.9h12.5c1.6,0,2.9,0.3,4.1,0.8s2.1,1.2,2.8,2c0.7,0.8,1.2,1.7,1.5,2.7c0.3,1,0.5,1.9,0.5,2.8
		c0,2.8-0.9,5-2.6,6.4c-1.7,1.5-4,2.2-6.9,2.2h-4.4v7.3h-7.5V37.9z M283.1,49.1h2.9c0.6,0,1.1,0,1.5-0.1c0.4,0,0.8-0.2,1.2-0.3
		c0.4-0.2,0.7-0.4,0.9-0.8c0.2-0.4,0.3-0.8,0.3-1.4c0-0.5-0.1-0.9-0.3-1.3c-0.2-0.3-0.4-0.6-0.8-0.7c-0.3-0.1-0.7-0.2-1.1-0.3
		c-0.4,0-0.9-0.1-1.4-0.1h-3.3V49.1z"/>
	<path class="st0" d="M305.3,44.1h-6.8v-6.2h21v6.2h-6.8v18h-7.5V44.1z"/>
</g>
<g>
	<path class="st0" d="M37.3,37.9h7.3l8.8,24.2h-7.7l-1-3.5h-7.7l-1.1,3.5h-7.5L37.3,37.9z M43.2,53.5L41,46h-0.1l-2.3,7.5H43.2z"/>
	<path class="st0" d="M55.1,37.9h7.5v18h10.7v6.2H55.1V37.9z"/>
	<path class="st0" d="M76.5,37.9h7.5v18h10.7v6.2H76.5V37.9z"/>
</g>
<path class="st2" d="M130.1,44.6c0,7.6-5.9,13.7-13.1,13.7c-7.2,0-13.1-6.2-13.1-13.7v-5.7"/>
<path class="st2" d="M130.1,44.6c0,7.6,5.9,13.7,13.1,13.7c7.2,0,13.1-6.2,13.1-13.7v-6.1"/>
<line class="st2" x1="130.1" y1="38.8" x2="130.1" y2="44.6"/>
</svg>
